<svg width="278" height="242" viewBox="0 0 278 242" fill="none" xmlns="http://www.w3.org/2000/svg">
<path d="M101.015 227C105.015 223.4 114.349 223.5 118.515 224C88.0153 196 99.5154 174 116.515 163.5C130.115 155.1 153.849 155.333 164.015 156.5C188.815 161.3 204.015 159.833 208.515 158.5C222.515 154.1 227.015 144 227.515 139.5C229.915 115.1 223.515 98.3333 220.015 93C208.015 70.5 180.015 65.5 170.015 68.5C162.015 70.9 148.167 72.8333 143 73.5C140.5 77 142.515 81.5 141.015 86C139.815 89.6 141.182 89.5 142.015 89C145.615 90.2 152.515 87.5 155.515 86C159.515 85.6 159.515 88.1667 159.015 89.5C159.349 89.3333 158.915 89.8 154.515 93C149.015 97 139.015 96 133.515 95C128.015 94 122.515 87.5 121.515 87C120.515 86.5 120.015 83 122.515 82.5C125.015 82 130.015 85.5 131.515 86.5C133.015 87.5 134.015 88 135.015 87.5C135.815 87.1 135.015 82.6667 134.515 80.5C111.315 85.7 95.182 67.6667 90.0154 58C73.5154 58.6667 40.0153 72.2 38.0153 121C36.0153 169.8 65.5153 207 80.5153 219.5C87.0153 227 96.5153 228.5 101.015 227Z" fill="url(#paint0_linear_8_14)"/>
<path d="M115.015 165C84.6154 185.8 105.682 213.333 120.015 224.5C125.849 225.5 138.715 224.3 143.515 211.5C149.515 195.5 135.015 183.5 124.015 179.5C115.215 176.3 114.349 168.5 115.015 165Z" fill="#FF9E7E"/>
<path d="M208.015 64.5C184.015 61.7 199.349 60.3334 210.015 60C234.415 58.8 250.515 61.5 255.515 63C259.015 64.1667 263.615 69.3 254.015 80.5C242.015 94.5 266.515 100.5 273.015 104.5C279.515 108.5 277.015 111 273.015 111.5C269.015 112 258.515 111 243.015 100.5C227.515 90 234.015 82 237.015 76.5C240.015 71 238.015 68 208.015 64.5Z" fill="#EC0007"/>
<path d="M272.515 133C282.915 126.2 263.849 120.5 253.015 118.5C244.215 115.7 251.015 127.333 255.515 133.5C256.849 136.167 262.115 139.8 272.515 133Z" fill="#FF0009"/>
<path d="M33.5154 166.5C20.0154 177.5 24.5154 190 25.0154 190.5C25.0154 194.5 39.0154 209 60.0154 215.5C81.0154 222 79.5154 222.5 65.5154 224C51.5154 225.5 1.01543 221 0.0154256 196.5C-0.984574 172 47.0154 155.5 33.5154 166.5Z" fill="#F01506"/>
<path d="M135.799 52.5687C134.199 57.7687 134.833 74.6667 135 82.5C106.2 83.7 91.6326 66.402 88.2992 57.5687C86.2992 50.7353 80.8992 35.6687 75.2992 30.0687C69.6992 24.4687 75.6325 23.7353 79.2992 24.0687C120.299 22.5687 137.799 46.0687 135.799 52.5687Z" fill="#35F31D"/>
<path d="M198.123 220.346C184.769 220.961 190.584 213.728 195.162 210.035C198.077 209.731 202.246 207.268 195.599 199.849C188.952 192.429 180.06 190.128 176.444 189.904C175.252 195.783 169.123 197.86 166.208 198.164L146.213 195.863C141.971 193.058 144.773 190.332 146.705 189.32L162.451 190.954C165.848 189.851 163.996 187.931 162.646 187.109L147.898 184.669C142.816 181.232 146.442 178.607 148.89 177.724L163.736 179.264C167.094 178.521 165.399 176.557 164.131 175.667L149.134 173.43C144.533 170.588 147.711 167.75 149.876 166.686C152.575 166.966 159.673 167.793 166.472 168.862C173.271 169.931 176.543 175.212 177.329 177.719C177.28 178.85 177.663 180.891 179.581 179.998C181.979 178.883 204.631 188.054 214.487 195.669C222.371 201.762 221.383 208.132 219.903 210.555C218.207 213.562 211.477 219.73 198.123 220.346Z" fill="#F01506"/>
<path d="M116.766 79.3709C119.33 76.3888 130.23 83.0984 135.359 86.826C127.665 34.0192 150.747 6.06259 152.671 2.33505C154.21 -0.646987 158.014 -0.149981 159.724 0.471275C162.288 2.33505 169.469 6.55959 177.676 8.54761C185.883 10.5356 182.805 12.6893 180.241 13.5177C153.055 26.4398 143.267 67.7741 141.771 86.826C141.13 88.0685 142.925 89.5595 155.235 85.5835C167.546 81.6074 167.022 86.7725 165.099 89.2575C144.069 101.186 127.27 95.0559 121.5 90.5C118.935 88.4291 114.201 82.3529 116.766 79.3709Z" fill="#431403"/>
<defs>
<linearGradient id="paint0_linear_8_14" x1="228" y1="58" x2="30" y2="236" gradientUnits="userSpaceOnUse">
<stop stop-color="#FF333A"/>
<stop offset="1" stop-color="#EC0007"/>
</linearGradient>
</defs>
</svg>
